<?xml version="1.0" encoding="utf-8"?>
<!-- Generator: Adobe Illustrator 27.9.0, SVG Export Plug-In . SVG Version: 6.00 Build 0)  -->
<svg version="1.1" id="圖層_1" xmlns="http://www.w3.org/2000/svg" xmlns:xlink="http://www.w3.org/1999/xlink" x="0px" y="0px"
	 viewBox="0 0 24 24" style="enable-background:new 0 0 24 24;" xml:space="preserve">
<style type="text/css">
	.st0{fill-rule:evenodd;clip-rule:evenodd;fill:#008C38;}
</style>
<path class="st0" d="M15.1,1.7c0-0.4,0.3-0.7,0.7-0.7h6.4C22.7,1,23,1.3,23,1.7v6.4c0,0.4-0.3,0.7-0.7,0.7s-0.7-0.3-0.7-0.7V3.5
	L10,15.1c-0.3,0.3-0.8,0.3-1,0c-0.3-0.3-0.3-0.8,0-1L20.5,2.5h-4.6C15.4,2.5,15.1,2.1,15.1,1.7z M2,5.8c0.6-0.6,1.5-1,2.3-1h6.4
	c0.4,0,0.7,0.3,0.7,0.7c0,0.4-0.3,0.7-0.7,0.7H4.3c-0.5,0-1,0.2-1.3,0.5C2.7,7.2,2.5,7.7,2.5,8.1v11.6c0,0.5,0.2,1,0.5,1.3
	c0.3,0.3,0.8,0.5,1.3,0.5h11.6c0.5,0,1-0.2,1.3-0.5c0.3-0.3,0.5-0.8,0.5-1.3v-6.4c0-0.4,0.3-0.7,0.7-0.7c0.4,0,0.7,0.3,0.7,0.7v6.4
	c0,0.9-0.3,1.7-1,2.3c-0.6,0.6-1.5,1-2.3,1H4.3c-0.9,0-1.7-0.3-2.3-1c-0.6-0.6-1-1.5-1-2.3V8.1C1,7.3,1.3,6.4,2,5.8z"/>
</svg>
