<svg width="10" height="11" viewBox="0 0 10 11" fill="none" xmlns="http://www.w3.org/2000/svg">
<path d="M5 4.00012H5.005M4.5 5.50012H5V7.50012H5.5M0.5 5.50012C0.5 6.09107 0.616396 6.67623 0.842542 7.2222C1.06869 7.76816 1.40016 8.26424 1.81802 8.6821C2.23588 9.09997 2.73196 9.43143 3.27792 9.65758C3.82389 9.88373 4.40905 10.0001 5 10.0001C5.59095 10.0001 6.17611 9.88373 6.72208 9.65758C7.26804 9.43143 7.76412 9.09997 8.18198 8.6821C8.59984 8.26424 8.93131 7.76816 9.15746 7.2222C9.3836 6.67623 9.5 6.09107 9.5 5.50012C9.5 4.30665 9.02589 3.16206 8.18198 2.31814C7.33807 1.47423 6.19347 1.00012 5 1.00012C3.80653 1.00012 2.66193 1.47423 1.81802 2.31814C0.974106 3.16206 0.5 4.30665 0.5 5.50012Z" stroke="#86954D" stroke-linecap="round" stroke-linejoin="round"/>
</svg>
