<?xml version="1.0" encoding="utf-8"?>
<!-- Generator: Adobe Illustrator 27.9.0, SVG Export Plug-In . SVG Version: 6.00 Build 0)  -->
<svg version="1.1" id="Layer_1" xmlns="http://www.w3.org/2000/svg" xmlns:xlink="http://www.w3.org/1999/xlink" x="0px" y="0px"
	 viewBox="0 0 60 60" style="enable-background:new 0 0 60 60;" xml:space="preserve">
<style type="text/css">
	.st0{fill-rule:evenodd;clip-rule:evenodd;fill:#010101;}
</style>
<path class="st0" d="M22.5,30c0,4.1,3.4,7.5,7.5,7.5c4.1,0,7.5-3.4,7.5-7.5v-0.1c-0.8,0.8-1.9,1.3-3.1,1.3c-2.4,0-4.4-2-4.4-4.4
	c0-1.7,1-3.3,2.5-4c-0.8-0.3-1.6-0.4-2.5-0.4C25.9,22.5,22.5,25.9,22.5,30z M58.3,25.7C53.7,19.8,42.4,10,30,10
	C17.7,10,6.3,19.8,1.7,25.7C0.6,27.1,0,28.5,0,30c0,1.5,0.6,2.9,1.7,4.3C6.3,40.2,17.6,50,30,50s23.7-9.8,28.3-15.7
	c1.1-1.4,1.6-2.8,1.7-4.3C60,28.5,59.4,27.1,58.3,25.7z M30,42.5c-6.9,0-12.5-5.6-12.5-12.5c0-6.9,5.6-12.5,12.5-12.5
	c6.9,0,12.5,5.6,12.5,12.5C42.5,36.9,36.9,42.5,30,42.5z"/>
</svg>
