<?xml version="1.0" encoding="utf-8"?>
<!-- Generator: Adobe Illustrator 27.9.0, SVG Export Plug-In . SVG Version: 6.00 Build 0)  -->
<svg version="1.1" id="圖層_1" xmlns="http://www.w3.org/2000/svg" xmlns:xlink="http://www.w3.org/1999/xlink" x="0px" y="0px"
	 viewBox="0 0 36 36" style="enable-background:new 0 0 36 36;" xml:space="preserve">
<style type="text/css">
	.st0{fill:none;stroke:#333333;stroke-width:1.8;stroke-linecap:round;stroke-linejoin:round;}
</style>
<g>
	<path class="st0" d="M7,30.5v-2.9c0-1.6,0.6-3.1,1.7-4.2c1.1-1.1,2.6-1.7,4.2-1.7H18 M26.1,32L26.1,32 M26.1,27.6
		c0.7,0,1.3-0.2,1.8-0.6c0.5-0.4,0.9-1,1-1.6c0.2-0.6,0.1-1.3-0.2-1.9c-0.3-0.6-0.7-1.1-1.3-1.4c-0.6-0.3-1.3-0.4-1.9-0.3
		c-0.6,0.1-1.2,0.5-1.7,1 M9.9,9.9c0,1.6,0.6,3.1,1.7,4.2c1.1,1.1,2.6,1.7,4.2,1.7c1.6,0,3.1-0.6,4.2-1.7c1.1-1.1,1.7-2.6,1.7-4.2
		S21.1,6.8,20,5.7C18.9,4.6,17.4,4,15.8,4c-1.6,0-3.1,0.6-4.2,1.7C10.5,6.8,9.9,8.3,9.9,9.9z"/>
</g>
</svg>
