<?xml version="1.0" encoding="utf-8"?>
<!-- Generator: Adobe Illustrator 27.9.0, SVG Export Plug-In . SVG Version: 6.00 Build 0)  -->
<svg version="1.1" id="圖層_1" xmlns="http://www.w3.org/2000/svg" xmlns:xlink="http://www.w3.org/1999/xlink" x="0px" y="0px"
	 viewBox="0 0 24 25" style="enable-background:new 0 0 24 25;" xml:space="preserve">
<style type="text/css">
	.st0{fill:none;stroke:#FFFFFF;stroke-linecap:round;stroke-linejoin:round;}
</style>
<path class="st0" d="M21,21.5l-6-6 M3,10.5c0,0.9,0.2,1.8,0.5,2.7c0.4,0.8,0.9,1.6,1.5,2.3c0.7,0.7,1.4,1.2,2.3,1.5
	c0.8,0.4,1.8,0.5,2.7,0.5c0.9,0,1.8-0.2,2.7-0.5c0.8-0.4,1.6-0.9,2.3-1.5c0.7-0.7,1.2-1.4,1.5-2.3c0.4-0.8,0.5-1.8,0.5-2.7
	c0-0.9-0.2-1.8-0.5-2.7c-0.4-0.8-0.9-1.6-1.5-2.3c-0.7-0.7-1.4-1.2-2.3-1.5c-0.8-0.4-1.8-0.5-2.7-0.5C9.1,3.5,8.2,3.7,7.3,4
	C6.5,4.4,5.7,4.9,5.1,5.6S3.9,7,3.5,7.8C3.2,8.7,3,9.6,3,10.5z"/>
</svg>
