<?xml version="1.0" encoding="utf-8"?>
<!-- Generator: Adobe Illustrator 27.9.0, SVG Export Plug-In . SVG Version: 6.00 Build 0)  -->
<svg version="1.1" id="圖層_1" xmlns="http://www.w3.org/2000/svg" xmlns:xlink="http://www.w3.org/1999/xlink" x="0px" y="0px"
	 viewBox="0 0 37 36" style="enable-background:new 0 0 37 36;" xml:space="preserve">
<style type="text/css">
	.st0{fill:none;stroke:#222222;stroke-width:2;stroke-linecap:round;stroke-linejoin:round;}
</style>
<path class="st0" d="M23,7.5v3 M23,16.5v3 M23,25.5v3 M8,7.5h21c0.8,0,1.6,0.3,2.1,0.9C31.7,9,32,9.7,32,10.5V15
	c-0.8,0-1.6,0.3-2.1,0.9C29.3,16.4,29,17.2,29,18s0.3,1.6,0.9,2.1c0.6,0.6,1.3,0.9,2.1,0.9v4.5c0,0.8-0.3,1.6-0.9,2.1
	c-0.6,0.6-1.3,0.9-2.1,0.9H8c-0.8,0-1.6-0.3-2.1-0.9C5.3,27.1,5,26.3,5,25.5V21c0.8,0,1.6-0.3,2.1-0.9C7.7,19.6,8,18.8,8,18
	s-0.3-1.6-0.9-2.1C6.6,15.3,5.8,15,5,15v-4.5c0-0.8,0.3-1.6,0.9-2.1S7.2,7.5,8,7.5z"/>
</svg>
