<?xml version="1.0" encoding="utf-8"?>
<!-- Generator: Adobe Illustrator 27.9.0, SVG Export Plug-In . SVG Version: 6.00 Build 0)  -->
<svg version="1.1" id="圖層_1" xmlns="http://www.w3.org/2000/svg" xmlns:xlink="http://www.w3.org/1999/xlink" x="0px" y="0px"
	 viewBox="0 0 36 36" style="enable-background:new 0 0 36 36;" xml:space="preserve">
<style type="text/css">
	.st0{fill:none;stroke:#333333;stroke-width:1.8;stroke-linecap:round;stroke-linejoin:round;}
</style>
<g>
	<path class="st0" d="M4.9,13.3h26.1 M4.9,22.7h26.1 M17.2,4c-2.6,4.2-4,9.1-4,14c0,4.9,1.4,9.8,4,14 M18.8,4c2.6,4.2,4,9.1,4,14
		c0,4.9-1.4,9.8-4,14 M4,18c0,1.8,0.4,3.7,1.1,5.4c0.7,1.7,1.7,3.2,3,4.5c1.3,1.3,2.8,2.3,4.5,3c1.7,0.7,3.5,1.1,5.4,1.1
		s3.7-0.4,5.4-1.1c1.7-0.7,3.2-1.7,4.5-3c1.3-1.3,2.3-2.8,3-4.5c0.7-1.7,1.1-3.5,1.1-5.4c0-3.7-1.5-7.3-4.1-9.9
		C25.3,5.5,21.7,4,18,4c-3.7,0-7.3,1.5-9.9,4.1S4,14.3,4,18z"/>
</g>
</svg>
