<?xml version="1.0" encoding="utf-8"?>
<!-- Generator: Adobe Illustrator 27.9.0, SVG Export Plug-In . SVG Version: 6.00 Build 0)  -->
<svg version="1.1" id="圖層_1" xmlns="http://www.w3.org/2000/svg" xmlns:xlink="http://www.w3.org/1999/xlink" x="0px" y="0px"
	 viewBox="0 0 17 17" style="enable-background:new 0 0 17 17;" xml:space="preserve">
<style type="text/css">
	.st0{fill:none;}
	.st1{fill:#EE8539;stroke:#EE8539;}
	.st2{fill:#EE8539;}
</style>
<rect class="st0" width="17" height="17"/>
<g>
	<path class="st1" d="M8.2,2.8L5.5,4.7h0C5.4,4.8,5.3,4.8,5.2,4.8h-3v0.1C1.9,5,1.6,5.1,1.3,5.3L1.2,5.4C0.8,5.8,0.6,6.4,0.6,6.9
		v3.2c0,0.5,0.2,1,0.5,1.3l0.1,0.2c0.4,0.4,0.9,0.6,1.5,0.6h2.5c0.1,0,0.2,0,0.3,0.1l0.1,0h0l2.7,1.9l0.2,0.1c-0.1,0-0.1,0-0.2-0.1
		l-0.1,0l-2.7-1.9l-0.1-0.1H2.7c-0.5,0-1-0.2-1.4-0.5l-0.2-0.1c-0.4-0.4-0.6-1-0.6-1.5V6.9c0-0.5,0.2-1,0.5-1.4l0.1-0.2
		c0.4-0.4,1-0.6,1.5-0.6h2.7l0.1-0.1L8.2,2.8L8.2,2.8c0-0.1,0.1-0.1,0.2-0.2L8.2,2.8z M9,2.9C9,3,9,3,9.1,3.1l0,0.1v10.6
		c0,0.1,0,0.2-0.1,0.3V2.9z"/>
	<path class="st2" d="M12.2,2.5c0-0.1,0.1-0.1,0.1-0.2c0.1,0,0.1-0.1,0.2-0.1c0.1,0,0.1,0,0.2,0c0.1,0,0.1,0,0.2,0
		c1.2,0.6,2.2,1.4,2.9,2.6c0.7,1.1,1.1,2.4,1.1,3.7c0,1.3-0.4,2.6-1.1,3.7c-0.7,1.1-1.7,2-2.9,2.6c-0.1,0.1-0.3,0.1-0.4,0
		c-0.1,0-0.2-0.1-0.3-0.3c-0.1-0.1-0.1-0.3,0-0.4c0-0.1,0.1-0.2,0.3-0.3c1-0.5,1.9-1.2,2.5-2.2c0.6-0.9,0.9-2,0.9-3.2
		c0-1.1-0.3-2.2-0.9-3.2c-0.6-0.9-1.5-1.7-2.5-2.2c-0.1,0-0.1-0.1-0.2-0.1c0-0.1-0.1-0.1-0.1-0.2c0-0.1,0-0.1,0-0.2
		C12.2,2.6,12.2,2.6,12.2,2.5L12.2,2.5z"/>
	<path class="st2" d="M11.3,5.5c0.1-0.1,0.2-0.2,0.3-0.2s0.3,0,0.4,0.1c0.6,0.3,1,0.8,1.4,1.4c0.3,0.6,0.5,1.2,0.5,1.9
		c0,0.7-0.2,1.3-0.5,1.9c-0.3,0.6-0.8,1-1.4,1.4c-0.1,0.1-0.3,0.1-0.4,0c-0.1,0-0.2-0.1-0.3-0.2c-0.1-0.1-0.1-0.3-0.1-0.4
		c0-0.1,0.1-0.2,0.2-0.3c0.4-0.2,0.7-0.6,1-1c0.2-0.4,0.4-0.9,0.4-1.3c0-0.5-0.1-0.9-0.4-1.3c-0.2-0.4-0.6-0.7-1-1
		c-0.1-0.1-0.2-0.2-0.2-0.3S11.2,5.6,11.3,5.5L11.3,5.5z"/>
</g>
</svg>
