<svg width="16" height="16" viewBox="0 0 16 16" fill="none" xmlns="http://www.w3.org/2000/svg">
<path d="M8.00002 4.00002C8.00002 4.35364 8.1405 4.69278 8.39054 4.94283C8.64059 5.19288 8.97973 5.33335 9.33335 5.33335C9.68698 5.33335 10.0261 5.19288 10.2762 4.94283C10.5262 4.69278 10.6667 4.35364 10.6667 4.00002M8.00002 4.00002C8.00002 3.6464 8.1405 3.30726 8.39054 3.05721C8.64059 2.80716 8.97973 2.66669 9.33335 2.66669C9.68698 2.66669 10.0261 2.80716 10.2762 3.05721C10.5262 3.30726 10.6667 3.6464 10.6667 4.00002M8.00002 4.00002H2.66669M10.6667 4.00002H13.3334M4.00002 8.00002C4.00002 8.35364 4.1405 8.69278 4.39054 8.94283C4.64059 9.19288 4.97973 9.33335 5.33335 9.33335C5.68698 9.33335 6.02611 9.19288 6.27616 8.94283C6.52621 8.69278 6.66669 8.35364 6.66669 8.00002M4.00002 8.00002C4.00002 7.6464 4.1405 7.30726 4.39054 7.05721C4.64059 6.80716 4.97973 6.66669 5.33335 6.66669C5.68698 6.66669 6.02611 6.80716 6.27616 7.05721C6.52621 7.30726 6.66669 7.6464 6.66669 8.00002M4.00002 8.00002H2.66669M6.66669 8.00002H13.3334M10 12C10 12.3536 10.1405 12.6928 10.3905 12.9428C10.6406 13.1929 10.9797 13.3334 11.3334 13.3334C11.687 13.3334 12.0261 13.1929 12.2762 12.9428C12.5262 12.6928 12.6667 12.3536 12.6667 12M10 12C10 11.6464 10.1405 11.3073 10.3905 11.0572C10.6406 10.8072 10.9797 10.6667 11.3334 10.6667C11.687 10.6667 12.0261 10.8072 12.2762 11.0572C12.5262 11.3073 12.6667 11.6464 12.6667 12M10 12H2.66669M12.6667 12H13.3334" stroke="#122514" stroke-linecap="round" stroke-linejoin="round"/>
</svg>
