<svg width="20" height="20" viewBox="0 0 20 20" fill="none" xmlns="http://www.w3.org/2000/svg">
<path d="M5.82032 5.20373C7.16533 4.27682 8.81591 3.86264 10.4564 4.04025C12.0969 4.21788 13.6127 4.97462 14.7132 6.16633C15.6127 7.14041 16.1824 8.34931 16.3608 9.63139L17.4456 8.58291L18.0039 9.12358L16.1611 10.9076L16.1557 10.9024L15.953 11.0988L13.9398 9.14972L14.4981 8.60905L15.6145 9.69039C15.4501 8.56532 14.9461 7.50541 14.1557 6.6495C13.1779 5.59062 11.8308 4.91797 10.3731 4.76015C8.91571 4.6024 7.44937 4.9703 6.2544 5.79369C5.05931 6.61729 4.21899 7.83883 3.8951 9.22439C3.57122 10.61 3.7865 12.0629 4.4988 13.3048C5.21111 14.5465 6.37079 15.4902 7.75633 15.9559C9.14204 16.4216 10.6566 16.3766 12.01 15.8289C13.3633 15.2812 14.4608 14.2695 15.0925 12.9874L15.7671 13.2996C15.0562 14.7424 13.8213 15.8809 12.2984 16.4973C10.7752 17.1137 9.07067 17.1648 7.51115 16.6407C5.95161 16.1166 4.64587 15.0542 3.84421 13.6565C3.04258 12.2589 2.80124 10.624 3.16572 9.06458C3.53023 7.50522 4.47534 6.13066 5.82032 5.20373Z" fill="#666666"/>
</svg>
