<svg width="16" height="17" viewBox="0 0 16 17" fill="none" xmlns="http://www.w3.org/2000/svg">
<path d="M3.3335 11.8335C3.3335 12.1871 3.47397 12.5263 3.72402 12.7763C3.97407 13.0264 4.31321 13.1668 4.66683 13.1668C5.02045 13.1668 5.35959 13.0264 5.60964 12.7763C5.85969 12.5263 6.00016 12.1871 6.00016 11.8335M3.3335 11.8335C3.3335 11.4799 3.47397 11.1407 3.72402 10.8907C3.97407 10.6406 4.31321 10.5002 4.66683 10.5002C5.02045 10.5002 5.35959 10.6406 5.60964 10.8907C5.85969 11.1407 6.00016 11.4799 6.00016 11.8335M3.3335 11.8335H2.00016V9.16683M6.00016 11.8335H10.0002M10.0002 11.8335C10.0002 12.1871 10.1406 12.5263 10.3907 12.7763C10.6407 13.0264 10.9799 13.1668 11.3335 13.1668C11.6871 13.1668 12.0263 13.0264 12.2763 12.7763C12.5264 12.5263 12.6668 12.1871 12.6668 11.8335M10.0002 11.8335C10.0002 11.4799 10.1406 11.1407 10.3907 10.8907C10.6407 10.6406 10.9799 10.5002 11.3335 10.5002C11.6871 10.5002 12.0263 10.6406 12.2763 10.8907C12.5264 11.1407 12.6668 11.4799 12.6668 11.8335M12.6668 11.8335H14.0002V7.8335M1.3335 3.8335H8.66683V11.8335M14.0002 7.8335H8.66683M14.0002 7.8335L12.0002 4.50016H8.66683M2.00016 6.50016H4.66683" stroke="#008C38" stroke-linecap="round" stroke-linejoin="round"/>
</svg>
