<svg width="17" height="17" viewBox="0 0 17 17" fill="none" xmlns="http://www.w3.org/2000/svg">
<g clip-path="url(#clip0_10789_9220)">
<path d="M8.21069 2.78427L5.51245 4.7081H5.51147C5.41624 4.77596 5.30224 4.81254 5.1853 4.81259H2.15601V4.88388C1.85439 4.95817 1.57099 5.09658 1.32886 5.29501L1.17554 5.43466C0.783052 5.82729 0.562256 6.35996 0.562256 6.91513V10.1026C0.562341 10.5883 0.731722 11.0563 1.03687 11.4288L1.17554 11.5831C1.56814 11.9757 2.10082 12.1963 2.65601 12.1964H5.1853C5.27322 12.1964 5.35938 12.2169 5.43726 12.256L5.51147 12.3009H5.51245L8.21069 14.2237L8.39526 14.3556C8.34014 14.3452 8.28668 14.3279 8.23706 14.3018L8.17163 14.2618L5.47339 12.339L5.34253 12.2462H2.65405C2.15385 12.2462 1.67147 12.0721 1.28784 11.7579L1.12964 11.6143C0.725363 11.2101 0.497915 10.6617 0.497803 10.0899V6.90244C0.497803 6.402 0.671641 5.91896 0.986084 5.53525L1.12964 5.37704C1.53399 4.97284 2.08231 4.74619 2.65405 4.74619H5.34253L5.47339 4.65341L8.17163 2.72958L8.17358 2.72861C8.24877 2.67462 8.33606 2.64109 8.42749 2.629L8.21069 2.78427ZM9.00073 2.93076C9.02929 2.98698 9.04896 3.04713 9.05737 3.10947L9.06226 3.17978V13.8048C9.06195 13.8924 9.03999 13.9779 9.00073 14.0558V2.93076Z" fill="#0F9036" stroke="#008C38"/>
<path d="M12.2189 2.48626C12.248 2.42284 12.2893 2.36577 12.3404 2.31831C12.3915 2.27085 12.4515 2.23393 12.5169 2.20966C12.5824 2.18539 12.6519 2.17424 12.7216 2.17686C12.7914 2.17947 12.8599 2.19579 12.9233 2.22489C14.1244 2.77727 15.1421 3.66231 15.8558 4.7752C16.5695 5.88809 16.9493 7.1822 16.9502 8.50426C16.9502 9.82176 16.5719 11.118 15.8558 12.2336C15.1425 13.3468 14.1247 14.2318 12.9233 14.7836C12.7952 14.8424 12.6491 14.8479 12.517 14.7988C12.3848 14.7498 12.2776 14.6503 12.2189 14.5223C12.1601 14.3942 12.1546 14.248 12.2037 14.1159C12.2527 13.9838 12.3522 13.8766 12.4802 13.8178C13.4979 13.3554 14.3584 12.6057 14.9559 11.6609C15.5584 10.7187 15.8785 9.62349 15.8781 8.50501C15.8777 7.38654 15.5569 6.29158 14.9537 5.3497C14.3488 4.40738 13.4858 3.65872 12.4675 3.19282C12.4041 3.16374 12.347 3.12244 12.2995 3.0713C12.2521 3.02015 12.2152 2.96016 12.1909 2.89474C12.1666 2.82933 12.1555 2.75977 12.1581 2.69005C12.1607 2.62033 12.177 2.5518 12.2061 2.48839L12.2189 2.48626Z" fill="#0F9036"/>
<path d="M11.2625 5.47188C11.333 5.34987 11.449 5.26083 11.5851 5.22437C11.7212 5.18791 11.8662 5.207 11.9882 5.27744C12.5537 5.60327 13.0234 6.07226 13.3501 6.63724C13.6768 7.20222 13.849 7.84326 13.8493 8.4959C13.8496 9.14853 13.6781 9.78975 13.3519 10.355C13.0258 10.9203 12.5565 11.3898 11.9914 11.7162C11.8698 11.7822 11.7273 11.7981 11.5941 11.7606C11.4609 11.7232 11.3476 11.6352 11.2783 11.5155C11.209 11.3958 11.1891 11.2538 11.2228 11.1196C11.2566 10.9855 11.3413 10.8698 11.4591 10.7971C11.8623 10.5636 12.1969 10.2281 12.4295 9.82435C12.6621 9.42059 12.7843 8.96276 12.784 8.49682C12.7837 8.03063 12.6607 7.57274 12.4274 7.16915C12.1941 6.76555 11.8587 6.43047 11.4548 6.19757C11.3328 6.12712 11.2438 6.01108 11.2073 5.87499C11.1708 5.7389 11.1899 5.5939 11.2604 5.47188H11.2625Z" fill="#0F9036"/>
</g>
<defs>
<clipPath id="clip0_10789_9220">
<rect width="17" height="17" fill="white"/>
</clipPath>
</defs>
</svg>
