<?xml version="1.0" encoding="utf-8"?>
<!-- Generator: Adobe Illustrator 27.9.0, SVG Export Plug-In . SVG Version: 6.00 Build 0)  -->
<svg version="1.1" id="_015_HEALTH" xmlns="http://www.w3.org/2000/svg" xmlns:xlink="http://www.w3.org/1999/xlink" x="0px"
	 y="0px" viewBox="0 0 60 60" style="enable-background:new 0 0 60 60;" xml:space="preserve">
<style type="text/css">
	.st0{fill:#333333;}
</style>
<path class="st0" d="M53.4,21.7c-0.8-0.9-2.2-1-3.2-0.2c-4.4,3.9-12,6.2-20.3,6.2s-15.8-2.3-20.3-6.2c-0.9-0.8-2.4-0.7-3.2,0.2
	c-0.8,0.9-0.7,2.4,0.2,3.2c1.1,1,2.4,1.9,3.9,2.7L9,32.2c-0.1,0.2-0.1,0.5-0.1,0.8c0,1.2,1,2.3,2.3,2.3c1,0,1.8-0.6,2.1-1.5l1.5-4.1
	c1.4,0.5,2.8,1,4.3,1.4l-0.8,4.7c0,0,0,0,0,0C18,36.9,18.8,38,20,38.2c0.1,0,0.3,0,0.4,0c1.1,0,2-0.8,2.2-1.9l0.8-4.6
	c1.4,0.2,2.9,0.3,4.3,0.4v4.6c0,1.2,1,2.3,2.3,2.3c1.2,0,2.3-1,2.3-2.3v-4.6c1.5-0.1,2.9-0.2,4.3-0.4l0.8,4.6
	c0.2,1.1,1.1,1.9,2.2,1.9c0.1,0,0.3,0,0.4,0c0,0,0,0,0,0c1.2-0.2,2.1-1.4,1.8-2.6L41,30.9c1.5-0.4,2.9-0.8,4.3-1.4l1.5,4.1
	c0.3,0.9,1.2,1.5,2.1,1.5v0c0.3,0,0.5,0,0.8-0.1c1.2-0.4,1.8-1.7,1.4-2.9l-1.6-4.6c1.4-0.8,2.7-1.7,3.9-2.7
	C54.2,24.1,54.3,22.7,53.4,21.7z"/>
</svg>
