<?xml version="1.0" encoding="utf-8"?>
<!-- Generator: Adobe Illustrator 27.9.0, SVG Export Plug-In . SVG Version: 6.00 Build 0)  -->
<svg version="1.1" id="圖層_1" xmlns="http://www.w3.org/2000/svg" xmlns:xlink="http://www.w3.org/1999/xlink" x="0px" y="0px"
	 viewBox="0 0 36 36" style="enable-background:new 0 0 36 36;" xml:space="preserve">
<style type="text/css">
	.st0{fill:none;stroke:#008C38;stroke-width:2.4;stroke-linecap:round;stroke-linejoin:round;}
</style>
<path class="st0" d="M9.3,26.7L9.3,26.7 M9.3,9.2L9.3,9.2 M26.7,9.2L26.7,9.2 M26.7,21.5h-5.2v5.2 M32,21.5L32,21.5 M21.5,32h5.2
	 M26.7,26.7H32V32 M4,5.7c0-0.5,0.2-0.9,0.5-1.2C4.8,4.2,5.3,4,5.8,4h7c0.5,0,0.9,0.2,1.2,0.5c0.3,0.3,0.5,0.8,0.5,1.2v7
	c0,0.5-0.2,0.9-0.5,1.2c-0.3,0.3-0.8,0.5-1.2,0.5h-7c-0.5,0-0.9-0.2-1.2-0.5C4.2,13.7,4,13.2,4,12.7V5.7z M21.5,5.7
	c0-0.5,0.2-0.9,0.5-1.2C22.3,4.2,22.8,4,23.2,4h7c0.5,0,0.9,0.2,1.2,0.5C31.8,4.8,32,5.3,32,5.7v7c0,0.5-0.2,0.9-0.5,1.2
	c-0.3,0.3-0.8,0.5-1.2,0.5h-7c-0.5,0-0.9-0.2-1.2-0.5c-0.3-0.3-0.5-0.8-0.5-1.2V5.7z M4,23.2c0-0.5,0.2-0.9,0.5-1.2
	c0.3-0.3,0.8-0.5,1.2-0.5h7c0.5,0,0.9,0.2,1.2,0.5c0.3,0.3,0.5,0.8,0.5,1.2v7c0,0.5-0.2,0.9-0.5,1.2c-0.3,0.3-0.8,0.5-1.2,0.5h-7
	c-0.5,0-0.9-0.2-1.2-0.5C4.2,31.2,4,30.7,4,30.2V23.2z"/>
</svg>
