<svg width="24" height="24" viewBox="0 0 24 24" fill="none" xmlns="http://www.w3.org/2000/svg">
<path fill-rule="evenodd" clip-rule="evenodd" d="M14.1464 5.14644C14.7706 4.52224 15.6172 4.17157 16.5 4.17157C17.3828 4.17157 18.2294 4.52224 18.8536 5.14644C19.4778 5.77065 19.8284 6.61724 19.8284 7.5C19.8284 8.38275 19.4778 9.22935 18.8536 9.85355L17.8546 10.8525C17.8542 10.8529 17.8539 10.8532 17.8536 10.8536C17.8532 10.8539 17.8529 10.8542 17.8525 10.8546L8.35355 20.3535C8.25979 20.4473 8.13261 20.5 8 20.5H4C3.72386 20.5 3.5 20.2761 3.5 20V16C3.5 15.8674 3.55268 15.7402 3.64645 15.6464L14.1464 5.14644ZM13.5 7.20711L4.5 16.2071V19.5H7.79289L16.7929 10.5L13.5 7.20711ZM17.5 9.79289L14.2071 6.5L14.8536 5.85355C15.2902 5.41689 15.8825 5.17157 16.5 5.17157C17.1175 5.17157 17.7098 5.41689 18.1464 5.85355C18.5831 6.29022 18.8284 6.88246 18.8284 7.5C18.8284 8.11753 18.5831 8.70978 18.1464 9.14644L17.5 9.79289Z" fill="#354052"/>
</svg>
