<svg width="40" height="41" viewBox="0 0 40 41" fill="none" xmlns="http://www.w3.org/2000/svg">
<path d="M12.012 25.237C11.7053 25.0622 11.4503 24.8095 11.2726 24.5045C11.0949 24.1995 11.0009 23.853 11 23.5V13.5C11 12.4 11.9 11.5 13 11.5H23C23.75 11.5 24.158 11.885 24.5 12.5M15 18.167C15 17.4597 15.281 16.7813 15.7811 16.2811C16.2813 15.781 16.9597 15.5 17.667 15.5H26.333C26.6832 15.5 27.03 15.569 27.3536 15.703C27.6772 15.837 27.9712 16.0335 28.2189 16.2811C28.4665 16.5288 28.663 16.8228 28.797 17.1464C28.931 17.47 29 17.8168 29 18.167V26.833C29 27.1832 28.931 27.53 28.797 27.8536C28.663 28.1772 28.4665 28.4712 28.2189 28.7189C27.9712 28.9665 27.6772 29.163 27.3536 29.297C27.03 29.431 26.6832 29.5 26.333 29.5H17.667C17.3168 29.5 16.97 29.431 16.6464 29.297C16.3228 29.163 16.0288 28.9665 15.7811 28.7189C15.5335 28.4712 15.337 28.1772 15.203 27.8536C15.069 27.53 15 27.1832 15 26.833V18.167Z" stroke="#333333" stroke-linecap="round" stroke-linejoin="round"/>
</svg>
