<svg width="15" height="14" viewBox="0 0 15 14" fill="none" xmlns="http://www.w3.org/2000/svg">
<path d="M9.5 8.33346L7.5 7.00012V3.66679M1.5 7.00012C1.5 7.78805 1.65519 8.56827 1.95672 9.29622C2.25825 10.0242 2.70021 10.6856 3.25736 11.2428C3.81451 11.7999 4.47595 12.2419 5.2039 12.5434C5.93185 12.8449 6.71207 13.0001 7.5 13.0001C8.28793 13.0001 9.06815 12.8449 9.7961 12.5434C10.5241 12.2419 11.1855 11.7999 11.7426 11.2428C12.2998 10.6856 12.7417 10.0242 13.0433 9.29622C13.3448 8.56827 13.5 7.78805 13.5 7.00012C13.5 6.21219 13.3448 5.43198 13.0433 4.70402C12.7417 3.97607 12.2998 3.31463 11.7426 2.75748C11.1855 2.20033 10.5241 1.75837 9.7961 1.45684C9.06815 1.15532 8.28793 1.00012 7.5 1.00012C6.71207 1.00012 5.93185 1.15532 5.2039 1.45684C4.47595 1.75837 3.81451 2.20033 3.25736 2.75748C2.70021 3.31463 2.25825 3.97607 1.95672 4.70402C1.65519 5.43198 1.5 6.21219 1.5 7.00012Z" stroke="white" stroke-width="2" stroke-linecap="round" stroke-linejoin="round"/>
</svg>
