<?xml version="1.0" encoding="utf-8"?>
<!-- Generator: Adobe Illustrator 27.9.0, SVG Export Plug-In . SVG Version: 6.00 Build 0)  -->
<svg version="1.1" id="圖層_1" xmlns="http://www.w3.org/2000/svg" xmlns:xlink="http://www.w3.org/1999/xlink" x="0px" y="0px"
	 viewBox="0 0 36 37" style="enable-background:new 0 0 36 37;" xml:space="preserve">
<style type="text/css">
	.st0{fill:none;stroke:#222222;stroke-width:2;stroke-linecap:round;stroke-linejoin:round;}
</style>
<path class="st0" d="M7.8,26.4c0,0.8,0.3,1.6,0.9,2.2c0.6,0.6,1.4,0.9,2.2,0.9s1.6-0.3,2.2-0.9c0.6-0.6,0.9-1.4,0.9-2.2 M7.8,26.4
	c0-0.8,0.3-1.6,0.9-2.2c0.6-0.6,1.4-0.9,2.2-0.9s1.6,0.3,2.2,0.9c0.6,0.6,0.9,1.4,0.9,2.2 M7.8,26.4H4.6v-6.3 M14.1,26.4h9.4
	 M23.5,26.4c0,0.8,0.3,1.6,0.9,2.2s1.4,0.9,2.2,0.9c0.8,0,1.6-0.3,2.2-0.9s0.9-1.4,0.9-2.2 M23.5,26.4c0-0.8,0.3-1.6,0.9-2.2
	s1.4-0.9,2.2-0.9c0.8,0,1.6,0.3,2.2,0.9s0.9,1.4,0.9,2.2 M29.8,26.4h3.1V17 M3.1,7.5h17.3v18.9 M32.9,16.9H20.4 M32.9,16.9L28.2,9
	h-7.9 M4.6,13.8h6.3"/>
</svg>
