<?xml version="1.0" encoding="utf-8"?>
<!-- Generator: Adobe Illustrator 27.9.0, SVG Export Plug-In . SVG Version: 6.00 Build 0)  -->
<svg version="1.1" id="圖層_1" xmlns="http://www.w3.org/2000/svg" xmlns:xlink="http://www.w3.org/1999/xlink" x="0px" y="0px"
	 viewBox="0 0 24 24" style="enable-background:new 0 0 24 24;" xml:space="preserve">
<style type="text/css">
	.st0{fill:#B83D4C;}
</style>
<path class="st0" d="M15,8.3l4.1-4.1c0.5-0.5,0.5-1.3,0-1.8C18.9,2.1,18.6,2,18.3,2H5.8C5.1,2,4.5,2.6,4.5,3.2c0,0,0,0,0,0v17.5
	c0,0.7,0.6,1.2,1.2,1.2S7,21.4,7,20.8v-6.3h11.3c0.7,0,1.2-0.6,1.2-1.3c0-0.3-0.1-0.6-0.4-0.9L15,8.3z M7,12V4.5h8.2l-2.9,2.9
	c-0.5,0.5-0.5,1.3,0,1.8c0,0,0,0,0,0l2.9,2.9H7z"/>
</svg>
