<?xml version="1.0" encoding="utf-8"?>
<!-- Generator: Adobe Illustrator 27.9.0, SVG Export Plug-In . SVG Version: 6.00 Build 0)  -->
<svg version="1.1" id="圖層_1" xmlns="http://www.w3.org/2000/svg" xmlns:xlink="http://www.w3.org/1999/xlink" x="0px" y="0px"
	 viewBox="0 0 16 16" style="enable-background:new 0 0 16 16;" xml:space="preserve">
<style type="text/css">
	.st0{fill:none;stroke:#FFFFFF;stroke-linecap:round;stroke-linejoin:round;}
</style>
<path class="st0" d="M8,4c0,0.4,0.1,0.7,0.4,0.9C8.6,5.2,9,5.3,9.3,5.3c0.4,0,0.7-0.1,0.9-0.4c0.2-0.3,0.4-0.6,0.4-0.9 M8,4
	c0-0.4,0.1-0.7,0.4-0.9C8.6,2.8,9,2.7,9.3,2.7c0.4,0,0.7,0.1,0.9,0.4c0.2,0.3,0.4,0.6,0.4,0.9 M8,4H2.7 M10.7,4h2.7 M4,8
	c0,0.4,0.1,0.7,0.4,0.9C4.6,9.2,5,9.3,5.3,9.3c0.4,0,0.7-0.1,0.9-0.4C6.5,8.7,6.7,8.4,6.7,8 M4,8c0-0.4,0.1-0.7,0.4-0.9
	C4.6,6.8,5,6.7,5.3,6.7c0.4,0,0.7,0.1,0.9,0.4C6.5,7.3,6.7,7.6,6.7,8 M4,8H2.7 M6.7,8h6.7 M10,12c0,0.4,0.1,0.7,0.4,0.9
	c0.3,0.3,0.6,0.4,0.9,0.4c0.4,0,0.7-0.1,0.9-0.4c0.2-0.2,0.4-0.6,0.4-0.9 M10,12c0-0.4,0.1-0.7,0.4-0.9c0.3-0.2,0.6-0.4,0.9-0.4
	c0.4,0,0.7,0.1,0.9,0.4c0.2,0.3,0.4,0.6,0.4,0.9 M10,12H2.7 M12.7,12h0.7"/>
</svg>
