<svg width="16" height="17" viewBox="0 0 16 17" fill="none" xmlns="http://www.w3.org/2000/svg">
<g clip-path="url(#clip0_5610_1032)">
<path d="M16 8.5C16 4.08172 12.4183 0.5 8 0.5C3.58172 0.5 0 4.08172 0 8.5C0 12.9183 3.58172 16.5 8 16.5C12.4183 16.5 16 12.9183 16 8.5Z" fill="url(#paint0_linear_5610_1032)"/>
<path d="M7.58051 7.08219C7.44919 6.7535 7.2522 6.49057 6.98955 6.35912C6.7269 6.16191 6.39855 6.03046 6.07024 5.9647C5.67626 5.89898 5.28229 5.83325 4.88831 5.83325C4.36301 5.83325 3.96903 5.83325 3.70638 5.83325H2.19611V12.7352H3.70638V10.7632H4.49433C5.21662 10.7632 5.80759 10.6975 6.33289 10.5003C6.79256 10.3688 7.18654 10.1059 7.44919 9.7115C7.71184 9.31711 7.84317 8.85697 7.84317 8.26538C7.84317 7.78557 7.71184 7.41085 7.58051 7.08219ZM6.00458 9.44856C5.80759 9.77722 5.6106 9.97443 5.28229 10.1059C4.95397 10.2374 4.56 10.3031 4.10036 10.3031H3.70638V6.35912C3.90337 6.35912 4.10036 6.35912 4.36301 6.35912C4.62566 6.35912 4.88831 6.35912 5.15096 6.42484C5.41361 6.49057 5.6106 6.62205 5.74193 6.7535C5.93891 6.88499 6.07024 7.08219 6.1359 7.3451C6.20157 7.60803 6.26723 7.93672 6.26723 8.26538C6.26723 8.79124 6.20157 9.18563 6.00458 9.44856Z" fill="white"/>
<path d="M4.83137 11.1667C4.42353 11.1667 4.07843 11.5118 4.07843 11.9197C4.07843 12.3275 4.42353 12.6726 4.83137 12.6726C5.23921 12.6726 5.58431 12.3275 5.58431 11.9197C5.58431 11.5118 5.27059 11.1667 4.83137 11.1667ZM4.86274 12.5471C4.64314 12.5471 4.4549 12.2648 4.4549 11.9197C4.4549 11.5746 4.64314 11.2922 4.86274 11.2922C5.08235 11.2922 5.27059 11.5746 5.27059 11.9197C5.27059 12.2648 5.08235 12.5471 4.86274 12.5471Z" fill="white"/>
<path d="M8.15688 11.2295H6.99609V11.3864H7.43531V12.6726H7.71766V11.3864H8.15688V11.2295Z" fill="white"/>
<path d="M6.14899 11.6686C6.05487 11.6058 6.05487 11.5745 6.05487 11.5117C6.05487 11.449 6.08625 11.4176 6.14899 11.4176C6.21174 11.4176 6.7137 11.4176 6.7137 11.4176V11.2607C6.7137 11.2607 6.33723 11.2607 6.11762 11.2607C5.96076 11.2607 5.80389 11.4176 5.80389 11.6372C5.80389 11.8568 6.0235 12.0137 6.24311 12.1078C6.43134 12.2019 6.65095 12.2647 6.65095 12.3902C6.65095 12.5156 6.52546 12.547 6.46272 12.547H5.96076V12.7039H6.49409C6.49409 12.7039 6.96468 12.6725 6.96468 12.3274C6.96468 11.9823 6.27448 11.7313 6.14899 11.6686Z" fill="white"/>
<path d="M9.30863 6.59763C9.46602 6.52519 9.65338 6.59374 9.71553 6.75547C9.9261 7.30332 10.036 7.88563 10.0392 8.47427C10.0423 9.06292 9.93846 9.64635 9.73373 10.1964C9.67327 10.3588 9.48667 10.4293 9.32852 10.3585L9.23371 10.3161C9.07556 10.2453 9.00594 10.06 9.06455 9.89696C9.22778 9.44265 9.31038 8.96246 9.30784 8.47813C9.30527 7.9938 9.21758 7.51452 9.04955 7.06198C8.98925 6.89953 9.05689 6.71355 9.21429 6.64108L9.30863 6.59763Z" fill="white" fill-opacity="0.3"/>
<path d="M11.1877 11.4051C11.3402 11.4874 11.5313 11.4308 11.606 11.2745C12.0195 10.4099 12.235 9.46251 12.2353 8.50151C12.2355 7.54051 12.0204 6.59302 11.6074 5.72824C11.5327 5.57188 11.3417 5.51519 11.1892 5.59738L11.0029 5.69778C10.8504 5.77997 10.7943 5.96993 10.8678 6.12683C11.2155 6.86879 11.3965 7.67936 11.3963 8.50129C11.3961 9.32325 11.2147 10.1337 10.8666 10.8755C10.793 11.0324 10.8491 11.2223 11.0015 11.3046L11.1877 11.4051Z" fill="white" fill-opacity="0.3"/>
<path d="M13.0376 12.4291C13.1865 12.5176 13.3796 12.469 13.4623 12.3167C14.099 11.1437 14.433 9.82835 14.4314 8.49034C14.4298 7.1523 14.0926 5.83776 13.453 4.66631C13.3699 4.51422 13.1767 4.46603 13.028 4.55497L12.867 4.65122C12.7183 4.74016 12.6705 4.93251 12.7529 5.08495C13.3174 6.12996 13.6149 7.30029 13.6164 8.49131C13.6178 9.68234 13.3232 10.8534 12.7611 11.8998C12.6792 12.0524 12.7275 12.2446 12.8763 12.3332L13.0376 12.4291Z" fill="white" fill-opacity="0.3"/>
</g>
<defs>
<linearGradient id="paint0_linear_5610_1032" x1="2.4381" y1="2.1" x2="13.4857" y2="14.519" gradientUnits="userSpaceOnUse">
<stop stop-color="#0F9036"/>
<stop offset="1" stop-color="#A9CC37"/>
</linearGradient>
<clipPath id="clip0_5610_1032">
<rect width="16" height="16" fill="white" transform="translate(0 0.5)"/>
</clipPath>
</defs>
</svg>
