<svg width="37" height="36" viewBox="0 0 37 36" fill="none" xmlns="http://www.w3.org/2000/svg">
<path d="M18.25 12.0002V31.5002M18.25 12.0002C17.7074 9.76428 16.7732 7.85276 15.5691 6.51491C14.365 5.17706 12.947 4.47496 11.5 4.50017C10.5054 4.50017 9.55161 4.89526 8.84835 5.59852C8.14509 6.30178 7.75 7.25561 7.75 8.25017C7.75 9.24473 8.14509 10.1986 8.84835 10.9018C9.55161 11.6051 10.5054 12.0002 11.5 12.0002M18.25 12.0002C18.7926 9.76428 19.7268 7.85276 20.9309 6.51491C22.135 5.17706 23.553 4.47496 25 4.50017C25.9946 4.50017 26.9484 4.89526 27.6517 5.59852C28.3549 6.30178 28.75 7.25561 28.75 8.25017C28.75 9.24473 28.3549 10.1986 27.6517 10.9018C26.9484 11.6051 25.9946 12.0002 25 12.0002M28.75 18.0002V28.5002C28.75 29.2958 28.4339 30.0589 27.8713 30.6215C27.3087 31.1841 26.5456 31.5002 25.75 31.5002H10.75C9.95435 31.5002 9.19129 31.1841 8.62868 30.6215C8.06607 30.0589 7.75 29.2958 7.75 28.5002V18.0002M4.75 13.5002C4.75 13.1024 4.90804 12.7208 5.18934 12.4395C5.47064 12.1582 5.85218 12.0002 6.25 12.0002H30.25C30.6478 12.0002 31.0294 12.1582 31.3107 12.4395C31.592 12.7208 31.75 13.1024 31.75 13.5002V16.5002C31.75 16.898 31.592 17.2795 31.3107 17.5608C31.0294 17.8421 30.6478 18.0002 30.25 18.0002H6.25C5.85218 18.0002 5.47064 17.8421 5.18934 17.5608C4.90804 17.2795 4.75 16.898 4.75 16.5002V13.5002Z" stroke="#008C38" stroke-width="2" stroke-linecap="round" stroke-linejoin="round"/>
</svg>
