<?xml version="1.0" encoding="utf-8"?>
<!-- Generator: Adobe Illustrator 27.9.0, SVG Export Plug-In . SVG Version: 6.00 Build 0)  -->
<svg version="1.1" id="Layer_1" xmlns="http://www.w3.org/2000/svg" xmlns:xlink="http://www.w3.org/1999/xlink" x="0px" y="0px"
	 viewBox="0 0 512 512" style="enable-background:new 0 0 512 512;" xml:space="preserve">
<style type="text/css">
	.st0{fill:#FFF100;}
</style>
<path class="st0" d="M462.4,213c0,0-72.5-71.8-72.7-72.1c-19-16.8-42.8-26-67-26H189.4c-24.2,0-48,9.2-67,26
	c-0.3,0.3-72.7,72.1-72.7,72.1C21,238.7,15.9,281.8,37.9,313.4C75.6,367.7,155.2,450,208.1,489.5c38.2,30,57.5,30.1,95.8,0
	c53-39.5,132.5-121.7,170.2-176.1C496.1,281.8,491,238.7,462.4,213L462.4,213z M441.2,290.6C405.5,342,330.1,420,280,457.4
	c-6.4,4.8-19.7,14.7-24,14.7c-4.3,0-17.6-9.9-24-14.7C181.9,420,106.5,342,70.7,290.6c-10.5-15.1-8-35.8,5.8-48
	c0.3-0.3,72.7-72,72.7-72c11.6-10.1,25.8-15.6,40.1-15.6h133.2c14.3,0,28.5,5.5,40.1,15.6c0,0,72.4,71.7,72.7,72
	C449.3,254.8,451.8,275.4,441.2,290.6L441.2,290.6z M391.5,282c0,11-9,20-20,20H140.5c-26.5-1.1-26.5-39,0-40h71l-30-40
	c-6.6-8.8-4.8-21.4,4-28c8.8-6.6,21.4-4.8,28,4l42,56l42-56c6.6-8.8,19.2-10.6,28-4c8.8,6.6,10.6,19.2,4,28l-30,40h72
	C382.6,262,391.5,270.9,391.5,282z M233.5,65.9v-46c1.1-26.5,39-26.5,40,0v46C272.4,92.5,234.5,92.4,233.5,65.9z M347.6,66.3l15-43
	c3.6-10.4,15-15.9,25.5-12.3c10.4,3.6,15.9,15,12.3,25.5l-15,43c-3.6,10.5-15.3,15.9-25.5,12.3C349.5,88.2,344,76.8,347.6,66.3z
	 M110.4,35.1c-3.4-10.5,2.3-21.8,12.8-25.2c10.5-3.4,21.8,2.3,25.2,12.8l14,43c3.4,10.5-2.3,21.8-12.8,25.2
	c-10.2,3.4-21.8-2.2-25.2-12.8L110.4,35.1z"/>
</svg>
