<?xml version="1.0" encoding="utf-8"?>
<!-- Generator: Adobe Illustrator 27.9.0, SVG Export Plug-In . SVG Version: 6.00 Build 0)  -->
<svg version="1.1" id="圖層_1" xmlns="http://www.w3.org/2000/svg" xmlns:xlink="http://www.w3.org/1999/xlink" x="0px" y="0px"
	 viewBox="0 0 37 37" style="enable-background:new 0 0 37 37;" xml:space="preserve">
<style type="text/css">
	.st0{fill:#008C38;}
</style>
<path class="st0" d="M8.7,18.5l2.8-5.6v-1.4H7.3v1.4h2.8l-2.8,5.6 M14.3,18.5l2.8-5.6v-1.4h-4.2v1.4h2.8l-2.8,5.6 M19.9,18.5
	l2.8-5.6v-1.4h-4.2v1.4h2.8l-2.8,5.6 M31.1,4.5c-1.5,0-2.8,1.3-2.8,2.8c0,1,0.7,2.1,2.1,2.4v17.2h-6.6v-4.2c1.4,0,2.9,0.2,3.1-1.1
	c0.1-1.4,0-12.9,0-12.9c0-0.8-0.6-1.4-1.4-1.4h-5.3c-1.1-1.7-3.1-2.8-5.2-2.8c-2.1,0-4.1,1.1-5.2,2.8H4.5c-0.8,0-1.4,0.6-1.4,1.4
	c0,0,0,11.4,0,12.9c0,1.5,1.4,1.1,3.2,1.1v9.8h17.6v-4.2h5.9c2.1,0,2.1-0.7,2.1-2.8V9.7c1.4-0.3,2.1-1.4,2.1-2.4
	C33.9,5.8,32.6,4.5,31.1,4.5z M4.5,8.7h21v12.6h-21V8.7z M22.3,31.1H7.8v-8.4h14.5V31.1z M19.9,28.3h-9.8v-2.8h9.8V28.3z"/>
</svg>
