<?xml version="1.0" encoding="utf-8"?>
<!-- Generator: Adobe Illustrator 27.9.0, SVG Export Plug-In . SVG Version: 6.00 Build 0)  -->
<svg version="1.1" id="圖層_1" xmlns="http://www.w3.org/2000/svg" xmlns:xlink="http://www.w3.org/1999/xlink" x="0px" y="0px"
	 viewBox="0 0 24 24" style="enable-background:new 0 0 24 24;" xml:space="preserve">
<style type="text/css">
	.st0{fill:#163D1D;}
</style>
<path class="st0" d="M17,3.3c1.5,0.9,2.8,2.1,3.6,3.6c0.9,1.5,1.3,3.2,1.4,5c0,1.7-0.4,3.5-1.3,5c-0.9,1.5-2.1,2.8-3.6,3.7
	c-1.5,0.9-3.2,1.4-4.9,1.4c-1.7,0-3.5-0.4-5-1.2c-1.5-0.8-2.8-2.1-3.7-3.5c-0.9-1.5-1.4-3.2-1.5-4.9L2,12l0-0.3
	c0.1-1.7,0.6-3.4,1.5-4.9c0.9-1.5,2.2-2.7,3.7-3.5C8.7,2.4,10.4,2,12.1,2C13.8,2,15.5,2.5,17,3.3z M10.5,9.1C10.3,9,10.1,9,9.8,9
	c-0.2,0-0.5,0.2-0.6,0.4C9.1,9.6,9,9.8,9,10.1c0,0.2,0.1,0.5,0.3,0.6l1.3,1.3l-1.3,1.3l-0.1,0.1C9.1,13.6,9,13.8,9,14.1
	s0.1,0.5,0.3,0.7C9.5,14.9,9.8,15,10,15c0.3,0,0.5-0.1,0.7-0.3l1.3-1.3l1.3,1.3l0.1,0.1c0.2,0.2,0.5,0.2,0.7,0.2s0.5-0.1,0.7-0.3
	c0.2-0.2,0.3-0.4,0.2-0.7c0-0.3-0.1-0.5-0.3-0.7L13.4,12l1.3-1.3l0.1-0.1c0.2-0.2,0.2-0.5,0.2-0.7c0-0.3-0.1-0.5-0.3-0.7
	C14.5,9.1,14.2,9,14,9c-0.3,0-0.5,0.1-0.7,0.3L12,10.6l-1.3-1.3l-0.1-0.1L10.5,9.1z"/>
</svg>
