<?xml version="1.0" encoding="utf-8"?>
<!-- Generator: Adobe Illustrator 27.9.0, SVG Export Plug-In . SVG Version: 6.00 Build 0)  -->
<svg version="1.1" id="圖層_1" xmlns="http://www.w3.org/2000/svg" xmlns:xlink="http://www.w3.org/1999/xlink" x="0px" y="0px"
	 viewBox="0 0 280 88" style="enable-background:new 0 0 280 88;" xml:space="preserve">
<style type="text/css">
	.st0{fill:#333333;}
	.st1{fill:#6B6867;}
	.st2{fill:url(#SVGID_1_);}
	.st3{fill:#FFFFFF;}
	.st4{fill:#FFFFFF;fill-opacity:0.3;}
</style>
<g>
	<path class="st0" d="M120.1,28h2v1.9h-2v3.8h-3v-3.8h-1.5v4.7h5.4v1.8h-5.4v2.7c2.2-0.3,4.2-0.7,5.8-1.1l0.4,1.5
		c-3.8,2-9.8,3.6-15.2,4.3l-0.9-3.8c2.1-0.1,4.2-0.2,6.1-0.4v-3.2h-5.6v-1.8h5.6v-4.7h-1.5v3.8h-3v-3.8h-1.9V28h1.9v-3.5h3V28h1.5
		v-4.2h-6v-1.9h6v-2c-1.8,0.1-3.7,0.2-5.6,0.2l-0.2-1.5c5.6-0.6,9-1.6,12.5-3l2.6,2.9c-1.5,0.5-3.5,0.8-5.6,1.1V22h6.1v1.9h-6.1V28
		h1.5v-3.5h3L120.1,28L120.1,28z M126.2,39.1v5.5h-3.7V16.4l3.4,0.9h2.3l1-0.8l3.4,1.5c-1.3,4-2.6,6.5-4.3,9.1
		c2.4,2.8,4.2,5.3,4.5,8C133.5,40.7,129,40.8,126.2,39.1z M129.4,34.5c-0.1-1.7-1.1-4.8-2.6-7.3c0.8-2.8,1.6-5.5,1.9-8.1h-2.5v18.6
		l0.1-0.5C129,37.8,129.5,37.4,129.4,34.5z"/>
	<path class="st0" d="M148.3,23.2v21.6h-3.7V29.3c-0.9,1.1-1.8,2.2-2.8,3l-1.1-1.1c2.8-4.1,5.1-10.3,6-15.9l4,1
		C150.2,18.8,149.3,21.1,148.3,23.2z M156,29.6c-0.9,3.8-3,8.2-6,11.4l-1.3-1c1.7-3.3,2.9-7,3.6-11.4L156,29.6z M160.9,22.9V41
		c0,3.8-3.5,4.8-9,1.9l0.4-1.6c4.4,0.7,4.7,0.3,4.7-1.5V22.9h-2.8c-1.1,2.3-2.5,4.4-4.1,6.3l-1.3-1c1.8-3.4,3.1-7.7,3.7-12.5l4,0.8
		c-0.3,1.5-0.8,3-1.4,4.5h9.2l1.2-0.8l3.7,2c-1.2,2-3.3,4.4-5,5.6l-1.2-1c0.6-1.2,1.2-2.8,1.5-4L160.9,22.9L160.9,22.9z M169.2,38.9
		l-3.8,1.6c-0.9-3.8-2.4-8.2-3.5-11.2l1.4-0.7C165.6,31.4,167.9,35.4,169.2,38.9z"/>
	<path class="st0" d="M204.3,41v2.2h-26.8V41H189v-7.3h-8.5v-2.1h8.5v-6.2h-5.5c-1.4,2.6-3.1,4.9-5,6.6l-1.2-1c2.5-3.9,4-8.5,4.9-14
		l4.2,0.9c-0.4,1.8-1.1,3.7-1.8,5.4h4.5V16h4.2v7.4h9v2h-9v6.2h8.4v2.1h-8.4V41H204.3z"/>
	<path class="st0" d="M216.6,29.5c-1.3-1.9-3.3-4.3-4.5-5.8l1-1.4c1.8,0.8,4.7,2.6,6.4,4.2L216.6,29.5z M218.2,30.3l1.5,0.5
		c-0.6,4.2-1.9,10.2-3,13.5l-4.2-2C214.4,39,216.5,34.5,218.2,30.3z M217.6,22.6c-1.4-1.9-3.2-4.2-4.4-5.6l1.1-1.3
		c1.8,0.8,4.5,2.4,6.3,4L217.6,22.6z M232.1,27.2v4.9h6.4v12.5h-3.9v-2.1h-9v2.1h-3.9V32.1h6.4v-4.9h-7.8v-2h7.8v-4.3
		c-2.6,0.3-4.9,0.4-6.5,0.5l-0.3-1.6c3.9-0.6,10.6-2.2,14.4-4.1L239,19c-1.9,0.6-4.3,1.1-6.9,1.5v4.9h8.1v2h-8.1V27.2z M225.5,34
		v6.5h9.1V34H225.5z"/>
	<path class="st0" d="M274.4,16.9v27.8h-3.7v-1.3h-17.5v1.4h-3.7V16.9H274.4z M253.3,18.9v14.7c1.5-1.2,2.9-2.7,4.1-4.6h-3.3v-1.8
		h4.3c0.2-0.4,0.4-0.9,0.6-1.3h-4.3v-1.7h2c-0.6-1.2-1.2-2.5-1.9-3.7l1.1-0.8c1.3,1.1,2.5,2.3,3.3,3.6l-1.5,1h1.9
		c0.5-1.5,0.8-3.2,1-5l3.3,0.5c-0.3,1.6-0.7,3.1-1.2,4.5h1.5l-0.2-0.2c0.8-1.2,1.5-2.9,2.1-4.4l2.7,1.4c-0.9,1.2-2,2.4-3,3.2h3.4V26
		H262c-0.2,0.4-0.4,0.9-0.6,1.3h8.5v1.8h-4c1.5,1.3,3.2,2.2,4.8,2.8v-13C270.7,18.9,253.3,18.9,253.3,18.9z M270.7,41.4v-8.7l-1.1,2
		c-1-0.6-2.1-1.4-3.1-2.5c0,1-0.1,1.8-0.2,2.5c-0.2,2.4-3.1,2.6-5.7,1l0.3-1.3c2.3,0.5,2.5,0.2,2.6-0.4c0.1-0.5,0.1-0.9,0.1-1.7
		h-3.8v4.2c0,1.1,0.3,1.4,1.5,1.5c1.6,0.2,3.1,0.1,4.7-0.1c1.3-0.2,1.5-0.5,1.6-2.8h1.2c1.1,3.6,0.5,5.1-2.2,5.3
		c-2.2,0.1-4.4,0.2-6.5,0c-2.7-0.2-3.4-0.7-3.4-3.1v-4.2c-0.9,0.7-1.8,1.4-2.9,2l-0.6-0.8v7.2h17.5V41.4z M260.4,28.9
		c-0.4,0.6-0.7,1.1-1.1,1.6h5.9c-0.3-0.5-0.7-1-0.9-1.6H260.4z"/>
</g>
<g>
	<path class="st1" d="M114.7,69.1c-0.3,0.1-0.5,0.2-0.7,0.3s-0.5,0.2-0.8,0.3c-0.3,0.1-0.6,0.2-0.9,0.2s-0.7,0.1-1.1,0.1
		c-0.7,0-1.4-0.1-2-0.3c-0.6-0.2-1.1-0.5-1.6-1c-0.4-0.4-0.8-1-1-1.7s-0.4-1.4-0.4-2.3c0-0.8,0.1-1.6,0.4-2.2c0.2-0.7,0.6-1.2,1-1.7
		c0.4-0.4,1-0.8,1.6-1s1.3-0.3,2-0.3c0.5,0,1.1,0.1,1.6,0.2c0.5,0.1,1.1,0.4,1.8,0.7V62h-0.1c-0.6-0.5-1.1-0.8-1.7-1
		s-1.1-0.3-1.8-0.3c-0.5,0-1,0.1-1.4,0.2c-0.4,0.2-0.8,0.4-1.1,0.8c-0.3,0.3-0.6,0.8-0.7,1.3c-0.2,0.5-0.3,1.1-0.3,1.8
		c0,0.7,0.1,1.3,0.3,1.8c0.2,0.5,0.4,0.9,0.7,1.3c0.3,0.3,0.7,0.6,1.1,0.7c0.4,0.2,0.9,0.2,1.4,0.2c0.7,0,1.3-0.1,1.8-0.3
		c0.6-0.2,1.1-0.6,1.6-1h0.1v1.6H114.7z"/>
	<path class="st1" d="M122.9,69.9h-1.3v-4.3c0-0.4,0-0.7-0.1-1s-0.1-0.5-0.2-0.7s-0.3-0.3-0.5-0.4c-0.2-0.1-0.5-0.1-0.8-0.1
		c-0.4,0-0.7,0.1-1.1,0.3s-0.7,0.4-1.1,0.7v5.7h-1.3V59.2h1.3V63c0.4-0.3,0.8-0.6,1.2-0.8c0.4-0.2,0.9-0.3,1.3-0.3
		c0.8,0,1.5,0.2,1.9,0.7s0.6,1.2,0.6,2.1L122.9,69.9L122.9,69.9z"/>
	<path class="st1" d="M131.7,69.9h-1.3V69c-0.4,0.3-0.8,0.6-1.2,0.8c-0.4,0.2-0.8,0.3-1.3,0.3c-0.8,0-1.4-0.2-1.9-0.7
		c-0.4-0.5-0.7-1.2-0.7-2.2v-5h1.3v4.3c0,0.4,0,0.7,0.1,1c0,0.3,0.1,0.5,0.2,0.7s0.3,0.3,0.5,0.4s0.5,0.1,0.9,0.1
		c0.3,0,0.7-0.1,1.1-0.3c0.4-0.2,0.8-0.4,1.1-0.7V62h1.3v7.9H131.7z"/>
	<path class="st1" d="M140.6,69.9h-1.3v-4.3c0-0.4,0-0.7-0.1-1s-0.1-0.5-0.2-0.7c-0.1-0.2-0.3-0.3-0.5-0.4c-0.2-0.1-0.5-0.1-0.8-0.1
		c-0.4,0-0.7,0.1-1.1,0.3c-0.4,0.2-0.7,0.4-1.1,0.7v5.7h-1.3v-7.6h1.3v0.8c0.4-0.3,0.8-0.6,1.2-0.8s0.9-0.3,1.3-0.3
		c0.8,0,1.5,0.2,1.9,0.7s0.6,1.2,0.6,2.1v4.9C140.5,69.9,140.6,69.9,140.6,69.9z"/>
	<path class="st1" d="M149.3,69c0,1.3-0.3,2.2-0.9,2.9c-0.6,0.6-1.5,0.9-2.7,0.9c-0.4,0-0.8,0-1.2-0.1s-0.8-0.1-1.1-0.2v-1.3h0.1
		c0.2,0.1,0.5,0.2,1,0.3c0.5,0.1,0.9,0.2,1.4,0.2c0.4,0,0.8-0.1,1.1-0.2s0.5-0.3,0.7-0.4c0.2-0.2,0.3-0.4,0.3-0.6
		c0.1-0.3,0.1-0.5,0.1-0.8V69c-0.4,0.3-0.8,0.5-1.1,0.7c-0.4,0.2-0.8,0.2-1.4,0.2c-0.9,0-1.6-0.3-2.2-1c-0.5-0.7-0.8-1.6-0.8-2.8
		c0-0.7,0.1-1.2,0.3-1.7s0.4-0.9,0.8-1.2c0.3-0.3,0.7-0.6,1.1-0.8c0.4-0.2,0.8-0.3,1.3-0.3c0.4,0,0.8,0,1.1,0.1s0.6,0.2,0.9,0.4
		l0.1-0.3h1.2V69H149.3z M148,67.8v-4.2c-0.3-0.2-0.7-0.3-1-0.3c-0.3-0.1-0.6-0.1-0.9-0.1c-0.7,0-1.3,0.2-1.7,0.7
		c-0.4,0.5-0.6,1.2-0.6,2.1s0.2,1.5,0.5,1.9s0.8,0.7,1.5,0.7c0.4,0,0.7-0.1,1.1-0.2S147.7,68,148,67.8z"/>
	<path class="st1" d="M158.2,69.9h-1.3v-4.3c0-0.4,0-0.7-0.1-1s-0.1-0.5-0.2-0.7c-0.1-0.2-0.3-0.3-0.5-0.4c-0.2-0.1-0.5-0.1-0.8-0.1
		c-0.4,0-0.7,0.1-1.1,0.3c-0.4,0.2-0.7,0.4-1.1,0.7v5.7h-1.3V59.2h1.3V63c0.4-0.3,0.8-0.6,1.2-0.8s0.9-0.3,1.3-0.3
		c0.8,0,1.5,0.2,1.9,0.7s0.7,1.2,0.7,2.1L158.2,69.9L158.2,69.9z"/>
	<path class="st1" d="M170.2,62.2l-2,7.6H167l-2-5.9l-1.9,5.9H162l-2-7.6h1.3l1.4,5.9l1.9-5.9h1.1l2,5.9l1.3-5.9
		C169,62.2,170.2,62.2,170.2,62.2z"/>
	<path class="st1" d="M178,69.9h-1.3v-0.8c-0.1,0.1-0.3,0.2-0.5,0.3c-0.2,0.1-0.4,0.2-0.6,0.3c-0.2,0.1-0.5,0.2-0.7,0.3
		c-0.3,0.1-0.6,0.1-1,0.1c-0.7,0-1.3-0.2-1.8-0.7s-0.7-1-0.7-1.7c0-0.6,0.1-1,0.4-1.4c0.2-0.4,0.6-0.6,1.1-0.8
		c0.5-0.2,1-0.3,1.7-0.4s1.4-0.1,2.1-0.2v-0.2c0-0.3-0.1-0.5-0.2-0.7c-0.1-0.2-0.2-0.3-0.4-0.5c-0.2-0.1-0.4-0.2-0.7-0.2
		s-0.5-0.1-0.8-0.1s-0.7,0-1.1,0.1c-0.4,0.1-0.8,0.2-1.3,0.4h-0.1v-1.3c0.2-0.1,0.6-0.1,1.1-0.2c0.5-0.1,0.9-0.1,1.4-0.1
		s1,0,1.4,0.1s0.7,0.2,1,0.5c0.3,0.2,0.5,0.5,0.7,0.8s0.2,0.7,0.2,1.2v5.2C177.9,69.9,178,69.9,178,69.9z M176.8,68v-2.1
		c-0.4,0-0.9,0.1-1.4,0.1s-1,0.1-1.3,0.2c-0.4,0.1-0.7,0.3-0.9,0.5s-0.3,0.5-0.3,0.9s0.1,0.8,0.4,1c0.3,0.2,0.7,0.3,1.2,0.3
		s0.9-0.1,1.2-0.3C176.1,68.4,176.4,68.2,176.8,68z"/>
	<path class="st1" d="M192.2,62.8c0,0.5-0.1,0.9-0.2,1.3c-0.2,0.4-0.4,0.7-0.7,1c-0.4,0.4-0.8,0.6-1.2,0.8c-0.5,0.2-1.1,0.3-1.8,0.3
		h-1.4V70h-1.4V59.7h2.8c0.6,0,1.1,0.1,1.6,0.2s0.8,0.3,1.1,0.5c0.4,0.3,0.7,0.6,0.9,1C192.1,61.7,192.2,62.2,192.2,62.8z
		 M190.8,62.8c0-0.4-0.1-0.7-0.2-0.9s-0.3-0.5-0.6-0.6c-0.2-0.1-0.5-0.2-0.8-0.3s-0.6-0.1-1.1-0.1h-1.3V65h1.1c0.5,0,1,0,1.3-0.1
		s0.6-0.3,0.8-0.5s0.4-0.4,0.5-0.7C190.7,63.4,190.8,63.1,190.8,62.8z"/>
	<path class="st1" d="M200.4,66.1c0,1.2-0.3,2.2-1,2.9c-0.6,0.7-1.5,1.1-2.6,1.1s-1.9-0.4-2.6-1.1c-0.6-0.7-1-1.7-1-2.9s0.3-2.2,1-3
		c0.6-0.7,1.5-1.1,2.6-1.1s1.9,0.4,2.6,1.1C200.1,63.8,200.4,64.8,200.4,66.1z M199.1,66.1c0-1-0.2-1.7-0.6-2.2
		c-0.4-0.5-0.9-0.7-1.6-0.7c-0.7,0-1.2,0.2-1.6,0.7c-0.4,0.5-0.6,1.2-0.6,2.2s0.2,1.7,0.6,2.2c0.4,0.5,0.9,0.7,1.6,0.7
		c0.7,0,1.2-0.2,1.6-0.7C198.9,67.8,199.1,67,199.1,66.1z"/>
	<path class="st1" d="M207.8,67.7c0,0.7-0.3,1.3-0.9,1.7c-0.6,0.4-1.4,0.7-2.4,0.7c-0.6,0-1.1-0.1-1.6-0.2s-0.9-0.3-1.2-0.4V68h0.1
		c0.4,0.3,0.9,0.5,1.4,0.7s1,0.3,1.4,0.3c0.6,0,1-0.1,1.3-0.3c0.3-0.2,0.5-0.5,0.5-0.9c0-0.3-0.1-0.5-0.3-0.7s-0.5-0.3-1-0.4
		c-0.2,0-0.4-0.1-0.7-0.1c-0.3-0.1-0.6-0.1-0.8-0.2c-0.7-0.2-1.1-0.4-1.4-0.8c-0.3-0.3-0.4-0.8-0.4-1.3c0-0.3,0.1-0.6,0.2-0.9
		c0.1-0.3,0.3-0.5,0.6-0.7s0.6-0.4,1-0.5s0.8-0.2,1.3-0.2s0.9,0.1,1.4,0.2c0.5,0.1,0.9,0.2,1.2,0.4V64h-0.1
		c-0.3-0.2-0.7-0.4-1.2-0.6c-0.5-0.2-0.9-0.2-1.4-0.2s-0.9,0.1-1.2,0.3s-0.5,0.4-0.5,0.8c0,0.3,0.1,0.6,0.3,0.7
		c0.2,0.2,0.5,0.3,0.9,0.4c0.2,0.1,0.5,0.1,0.8,0.2s0.5,0.1,0.7,0.2c0.6,0.1,1.1,0.4,1.4,0.7C207.7,66.7,207.8,67.1,207.8,67.7z"/>
	<path class="st1" d="M213.6,69.8c-0.2,0.1-0.5,0.1-0.8,0.2c-0.3,0-0.5,0.1-0.8,0.1c-0.8,0-1.4-0.2-1.8-0.6c-0.4-0.4-0.6-1.1-0.6-2
		v-4.1h-0.9v-1.1h0.9V60h1.3v2.2h2.7v1.1H211v3.5c0,0.4,0,0.7,0,0.9c0,0.2,0.1,0.4,0.2,0.6c0.1,0.2,0.2,0.3,0.4,0.4s0.4,0.1,0.8,0.1
		c0.2,0,0.4,0,0.7-0.1c0.2-0.1,0.4-0.1,0.5-0.2h0.1L213.6,69.8L213.6,69.8z"/>
	<path class="st1" d="M228.1,69.1c-0.2,0.1-0.5,0.2-0.7,0.3s-0.5,0.2-0.8,0.3c-0.3,0.1-0.6,0.2-0.9,0.2c-0.3,0.1-0.7,0.1-1.1,0.1
		c-0.7,0-1.4-0.1-2-0.3c-0.6-0.2-1.1-0.5-1.6-1c-0.4-0.4-0.8-1-1-1.7s-0.4-1.4-0.4-2.3c0-0.8,0.1-1.6,0.4-2.2c0.2-0.7,0.6-1.2,1-1.7
		c0.4-0.4,1-0.8,1.6-1s1.3-0.3,2-0.3c0.5,0,1.1,0.1,1.6,0.2c0.5,0.1,1.2,0.4,1.8,0.7V62l0,0c-0.6-0.5-1.1-0.8-1.7-1
		c-0.6-0.2-1.1-0.3-1.8-0.3c-0.5,0-1,0.1-1.4,0.2c-0.4,0.2-0.8,0.4-1.1,0.8c-0.3,0.3-0.6,0.8-0.7,1.3c-0.2,0.5-0.3,1.1-0.3,1.8
		c0,0.7,0.1,1.3,0.3,1.8s0.4,0.9,0.8,1.3c0.3,0.3,0.7,0.6,1.1,0.7c0.4,0.2,0.9,0.2,1.3,0.2c0.7,0,1.3-0.1,1.8-0.3
		c0.6-0.2,1.1-0.6,1.6-1h0.1L228.1,69.1L228.1,69.1z"/>
	<path class="st1" d="M236.4,66.1c0,1.2-0.3,2.2-1,2.9c-0.6,0.7-1.5,1.1-2.6,1.1s-1.9-0.4-2.6-1.1c-0.6-0.7-1-1.7-1-2.9s0.3-2.2,1-3
		c0.6-0.7,1.5-1.1,2.6-1.1s1.9,0.4,2.6,1.1C236.1,63.8,236.4,64.8,236.4,66.1z M235.1,66.1c0-1-0.2-1.7-0.6-2.2
		c-0.4-0.5-0.9-0.7-1.6-0.7c-0.7,0-1.2,0.2-1.6,0.7c-0.4,0.5-0.6,1.2-0.6,2.2s0.2,1.7,0.6,2.2c0.4,0.5,0.9,0.7,1.6,0.7
		c0.7,0,1.2-0.2,1.6-0.7C234.9,67.8,235.1,67,235.1,66.1z"/>
	<path class="st1" d="M240.5,69.9h-1.6V68h1.6V69.9z"/>
	<path class="st1" d="M246.1,67.9l-1.9,4.5h-1l1.2-4.5H246.1z"/>
	<path class="st1" d="M260,69.9h-6.4V59.7h1.4v9h5.1v1.2C260.1,69.9,260,69.9,260,69.9z"/>
	<path class="st1" d="M265.2,69.8c-0.2,0.1-0.5,0.1-0.8,0.2c-0.3,0-0.5,0.1-0.8,0.1c-0.8,0-1.4-0.2-1.8-0.6s-0.6-1.1-0.6-2v-4.1
		h-0.9v-1.1h0.9V60h1.3v2.2h2.7v1.1h-2.7v3.5c0,0.4,0,0.7,0,0.9c0,0.2,0.1,0.4,0.2,0.6s0.2,0.3,0.4,0.4c0.2,0.1,0.4,0.1,0.8,0.1
		c0.2,0,0.4,0,0.7-0.1c0.2-0.1,0.4-0.1,0.5-0.2h0.1L265.2,69.8L265.2,69.8z"/>
	<path class="st1" d="M273,69.9h-1.3v-0.8c-0.4,0.3-0.8,0.6-1.2,0.7c-0.4,0.2-0.8,0.3-1.3,0.3c-0.9,0-1.6-0.4-2.2-1.1
		c-0.5-0.7-0.8-1.7-0.8-2.9c0-0.6,0.1-1.2,0.3-1.7c0.2-0.5,0.4-0.9,0.7-1.3c0.3-0.3,0.7-0.6,1.1-0.8s0.8-0.3,1.3-0.3
		c0.4,0,0.8,0,1.1,0.1c0.3,0.1,0.6,0.2,1,0.4v-3.3h1.3V69.9z M271.7,68v-4.4c-0.3-0.2-0.7-0.3-0.9-0.3c-0.3-0.1-0.6-0.1-0.9-0.1
		c-0.7,0-1.3,0.2-1.7,0.8c-0.4,0.5-0.6,1.2-0.6,2.1s0.2,1.6,0.5,2.1s0.8,0.7,1.5,0.7c0.4,0,0.7-0.1,1.1-0.2
		C271,68.5,271.4,68.2,271.7,68z"/>
	<path class="st1" d="M277.6,69.9H276V68h1.6V69.9z"/>
</g>
<g>
	
		<linearGradient id="SVGID_1_" gradientUnits="userSpaceOnUse" x1="13.0062" y1="78.8413" x2="73.7681" y2="10.5365" gradientTransform="matrix(1 0 0 -1 0 88)">
		<stop  offset="0" style="stop-color:#0F9036"/>
		<stop  offset="1" style="stop-color:#A9CC37"/>
	</linearGradient>
	<path class="st2" d="M44,0L44,0c24.3,0,44,19.7,44,44l0,0c0,24.3-19.7,44-44,44l0,0C19.7,88,0,68.3,0,44l0,0C0,19.7,19.7,0,44,0z"
		/>
	<path class="st3" d="M41.7,36.2c-0.7-1.8-1.8-3.3-3.3-4c-1.4-1.1-3.3-1.8-5.1-2.2c-2.2-0.4-4.3-0.7-6.5-0.7c-2.9,0-5.1,0-6.5,0
		h-8.3v38h8.3V56.4h4.3c4,0,7.2-0.4,10.1-1.4c2.5-0.7,4.7-2.2,6.1-4.3s2.2-4.7,2.2-8C42.8,40.2,42.4,38,41.7,36.2z M33,49.2
		c-1.1,1.8-2.2,2.9-4,3.6c-1.8,0.7-4,1.1-6.5,1.1h-2.2V32.2c1.1,0,2.2,0,3.6,0c1.4,0,2.9,0,4.3,0.4s2.5,1.1,3.3,1.8
		c1.1,0.7,1.8,1.8,2.2,3.3c0.4,1.4,0.7,3.3,0.7,5.1C34.5,45.6,34.1,47.8,33,49.2z"/>
	<path class="st3" d="M26.6,58.5c-2.3,0-4.3,2-4.3,4.3s2,4.3,4.3,4.3s4.3-2,4.3-4.3C30.9,60.4,29,58.5,26.6,58.5z M28.2,65.2
		c-0.4,0.6-0.9,0.9-1.4,0.9c-0.5,0-1-0.3-1.4-0.9c-0.4-0.6-0.6-1.5-0.6-2.3s0.2-1.7,0.6-2.3c0.4-0.6,0.9-0.9,1.4-0.9
		c0.5,0,1,0.3,1.4,0.9c0.4,0.6,0.6,1.5,0.6,2.3C28.8,63.7,28.6,64.5,28.2,65.2z"/>
	<polygon class="st3" points="38.3,58.8 38.3,60 40.7,60 40.7,67.1 42.6,67.1 42.6,60 45,60 45,58.8 	"/>
	<path class="st3" d="M37.8,63.6c-0.3-0.4-0.8-0.7-1.4-1.1c-0.8-0.5-1.6-0.8-2.1-1.1c-0.2-0.1-0.3-0.1-0.4-0.2
		c-0.2-0.1-0.3-0.3-0.4-0.4c0-0.1,0-0.2,0-0.4c0-0.1,0-0.2,0.1-0.3c0.1-0.1,0.1-0.1,0.3-0.1h3.3V59h-3.5c-0.9,0-1.9,0.9-1.9,2.2
		c0,0.6,0.3,1.2,0.8,1.7c0.4,0.4,1,0.8,1.7,1.1c0.2,0.1,0.4,0.2,0.7,0.3l0.1,0.1c0.3,0.1,0.5,0.2,0.7,0.3c0.2,0.1,0.4,0.2,0.5,0.3
		c0.1,0.1,0.2,0.2,0.2,0.3c0,0.2-0.1,0.4-0.3,0.5c-0.2,0.1-0.4,0.1-0.6,0.1h-2.9v1.2h3l0,0l0.2,0l0,0l0,0c0.1,0,0.2,0,0.3,0
		c0.2,0,0.6-0.1,0.9-0.3c0.6-0.3,1.4-0.8,1.4-1.9C38.5,64.6,38.3,64.1,37.8,63.6z"/>
	<path class="st4" d="M51.2,33.5c0.9-0.4,1.9,0,2.2,0.9c1.2,3,1.8,6.2,1.8,9.5c0,3.2-0.6,6.4-1.7,9.5c-0.3,0.9-1.4,1.3-2.2,0.9
		L50.8,54c-0.9-0.4-1.3-1.4-0.9-2.3c0.9-2.5,1.4-5.1,1.3-7.8c0-2.7-0.5-5.3-1.4-7.8c-0.3-0.9,0-1.9,0.9-2.3L51.2,33.5z"/>
	<path class="st4" d="M61.5,60c0.8,0.5,1.9,0.1,2.3-0.7c2.3-4.8,3.5-10,3.5-15.3c0-5.3-1.2-10.5-3.5-15.3c-0.4-0.9-1.5-1.2-2.3-0.7
		l-1,0.6c-0.8,0.5-1.1,1.5-0.7,2.4c1.9,4.1,2.9,8.5,2.9,13.1c0,4.5-1,9-2.9,13.1c-0.4,0.9-0.1,1.9,0.7,2.4L61.5,60z"/>
	<path class="st4" d="M71.7,65.6c0.8,0.5,1.9,0.2,2.3-0.6c3.5-6.5,5.3-13.7,5.3-21c0-7.4-1.9-14.6-5.4-21c-0.5-0.8-1.5-1.1-2.3-0.6
		l-0.9,0.5c-0.8,0.5-1.1,1.5-0.6,2.4c3.1,5.7,4.7,12.2,4.7,18.7c0,6.6-1.6,13-4.7,18.7c-0.5,0.8-0.2,1.9,0.6,2.4L71.7,65.6z"/>
</g>
</svg>
